# Blender 3.6.23
# www.blender.org
mtllib mcl_mangrove_hanging_propagule.mtl
o Propagule
v -0.062500 0.125000 0.062500
v -0.062500 0.312500 0.062500
v -0.062500 0.125000 -0.062500
v -0.062500 0.312500 -0.062500
v 0.062500 0.125000 0.062500
v 0.062500 0.312500 0.062500
v 0.062500 0.125000 -0.062500
v 0.062500 0.312500 -0.062500
v -0.062500 0.312500 0.062500
v -0.062500 0.375000 0.062500
v -0.062500 0.312500 -0.062500
v -0.062500 0.375000 -0.062500
v 0.062500 0.312500 0.062500
v 0.062500 0.375000 0.062500
v 0.062500 0.312500 -0.062500
v 0.062500 0.375000 -0.062500
v -0.044194 0.500000 -0.044194
v 0.044194 0.500000 0.044194
v -0.044194 0.375000 -0.044194
v 0.044194 0.375000 0.044194
v 0.044194 0.500000 -0.044194
v -0.044194 0.500000 0.044194
v 0.044194 0.375000 -0.044194
v -0.044194 0.375000 0.044194
v -0.062500 0.250030 0.171314
v 0.062500 0.250030 0.171314
v -0.062500 0.312530 0.063061
v 0.062500 0.312530 0.063061
v -0.062500 0.249970 0.171314
v 0.062500 0.249970 0.171314
v -0.062500 0.312470 0.063061
v 0.062500 0.312470 0.063061
v -0.171314 0.249970 -0.062500
v -0.171314 0.249970 0.062500
v -0.063061 0.312470 -0.062500
v -0.063061 0.312470 0.062500
v -0.171314 0.250030 -0.062500
v -0.171314 0.250030 0.062500
v -0.063061 0.312530 -0.062500
v -0.063061 0.312530 0.062500
v 0.063061 0.312470 -0.062500
v 0.063061 0.312470 0.062500
v 0.171314 0.249970 -0.062500
v 0.171314 0.249970 0.062500
v 0.063061 0.312530 -0.062500
v 0.063061 0.312530 0.062500
v 0.171314 0.250030 -0.062500
v 0.171314 0.250030 0.062500
v -0.062500 0.312470 -0.063061
v 0.062500 0.312470 -0.063061
v -0.062500 0.249970 -0.171315
v 0.062500 0.249970 -0.171315
v -0.062500 0.312530 -0.063061
v 0.062500 0.312530 -0.063061
v -0.062500 0.250030 -0.171315
v 0.062500 0.250030 -0.171315
v -0.044194 0.125000 -0.044194
v 0.044194 0.125000 0.044194
v -0.044194 -0.187500 -0.044194
v 0.044194 -0.187500 0.044194
v 0.044194 0.125000 -0.044194
v -0.044194 0.125000 0.044194
v 0.044194 -0.187500 -0.044194
v -0.044194 -0.187500 0.044194
v -0.044194 -0.500000 0.044194
v -0.044194 0.125000 0.044194
v 0.044194 -0.500000 -0.044194
v 0.044194 0.125000 -0.044194
v -0.044194 -0.500000 -0.044194
v -0.044194 0.125000 -0.044194
v 0.044194 -0.500000 0.044194
v 0.044194 0.125000 0.044194
vn -1.0000 -0.0000 -0.0000
vn -0.0000 -0.0000 -1.0000
vn 1.0000 -0.0000 -0.0000
vn -0.0000 -0.0000 1.0000
vn -0.0000 -1.0000 -0.0000
vn -0.0000 1.0000 -0.0000
vn 0.7071 -0.0000 -0.7071
vn 0.7071 -0.0000 0.7071
vn -0.0000 0.8660 0.5000
vn -0.5000 0.8660 -0.0000
vn 0.5000 0.8660 -0.0000
vn -0.0000 0.8660 -0.5000
vn -0.7071 -0.0000 -0.7071
vt 0.125000 0.500000
vt 0.125000 0.687500
vt 0.000000 0.687500
vt 0.000000 0.500000
vt 0.000000 0.375000
vt 0.125000 0.375000
vt 0.125000 0.812500
vt 0.125000 0.875000
vt 0.000000 0.875000
vt 0.000000 0.812500
vt 0.125000 1.000000
vt 0.000000 1.000000
vt 0.437500 1.000000
vt 0.562500 1.000000
vt 0.562500 0.875000
vt 0.437500 0.875000
vt 0.500000 0.812500
vt 0.625000 0.812500
vt 0.625000 0.687500
vt 0.500000 0.687500
vt 0.500000 0.812500
vt 0.375000 0.812500
vt 0.375000 0.687500
vt 0.625000 0.687500
vt 0.187500 0.687500
vt 0.312500 0.687500
vt 0.312500 0.375000
vt 0.187500 0.375000
vt 0.187500 0.687500
vt 0.187500 0.375000
vt 0.187500 1.000000
vt 0.312500 1.000000
s 0
g Propagule_Stage_1
usemtl Stage_1
f 9/7/1 10/8/1 12/9/1 11/10/1
f 11/7/2 12/8/2 16/9/2 15/10/2
f 15/7/3 16/8/3 14/9/3 13/10/3
f 13/7/4 14/8/4 10/9/4 9/10/4
f 11/3/5 15/2/5 13/7/5 9/10/5
f 16/11/6 12/12/6 10/9/6 14/8/6
f 17/13/7 18/14/7 20/15/7 19/16/7
f 21/13/8 22/14/8 24/15/8 23/16/8
f 25/17/9 26/18/9 28/19/9 27/20/9
f 29/21/9 30/22/9 32/23/9 31/20/9
f 33/23/10 34/22/10 36/21/10 35/20/10
f 37/21/10 38/18/10 40/24/10 39/20/10
f 41/23/11 42/20/11 44/21/11 43/22/11
f 45/21/11 46/20/11 48/24/11 47/18/11
f 49/20/12 50/21/12 52/22/12 51/23/12
f 53/20/12 54/24/12 56/18/12 55/21/12
g Propagule_Stage_2
usemtl Stage_2
f 1/1/1 2/2/1 4/3/1 3/4/1
f 3/1/2 4/2/2 8/3/2 7/4/2
f 7/1/3 8/2/3 6/3/3 5/4/3
f 5/1/4 6/2/4 2/3/4 1/4/4
f 3/5/5 7/6/5 5/1/5 1/4/5
g Propagule_Stage_3
usemtl Stage_3
f 57/25/7 58/26/7 60/27/7 59/28/7
f 61/29/8 62/26/8 64/27/8 63/30/8
g Propagule_Stage_4
usemtl Stage_4
f 65/28/13 66/31/13 68/32/13 67/27/13
f 69/27/7 70/32/7 72/31/7 71/28/7
