# Blender 3.6.23
# www.blender.org
mtllib mcl_mangrove_hanging_propagule_5.mtl
o Hanging_Propagule_1
v -0.062500 0.375000 0.062500
v -0.062500 0.375000 -0.062500
v 0.062500 0.375000 0.062500
v 0.062500 0.375000 -0.062500
v -0.044194 0.375000 -0.044194
v -0.044194 0.500000 -0.044194
v 0.044194 0.375000 0.044194
v 0.044194 0.500000 0.044194
v 0.044194 0.375000 -0.044194
v 0.044194 0.500000 -0.044194
v -0.044194 0.375000 0.044194
v -0.044194 0.500000 0.044194
v -0.062500 0.312500 0.062500
v -0.187500 0.264700 0.062500
v -0.187500 0.264700 -0.062500
v 0.062500 0.312500 -0.062500
v 0.187500 0.264700 0.062500
v 0.187500 0.264700 -0.062500
v -0.062500 0.264700 0.187500
v 0.062500 0.264700 0.187500
v -0.062500 0.264700 -0.187500
v 0.062500 0.264700 -0.187500
v 0.062500 0.312550 0.062500
v 0.187500 0.264750 0.062500
v 0.187500 0.264750 -0.062500
v -0.062500 0.312550 -0.062500
v 0.062500 0.312550 -0.062500
v -0.062500 0.264750 -0.187500
v 0.062500 0.264750 -0.187500
v -0.062500 0.312550 0.062500
v -0.187500 0.264750 0.062500
v -0.187500 0.264750 -0.062500
v -0.062500 0.264750 0.187500
v 0.062500 0.264750 0.187500
v -0.062500 0.125000 0.062500
v -0.062500 0.125000 -0.062500
v -0.062500 0.312500 -0.062500
v 0.062500 0.125000 0.062500
v 0.062500 0.312500 0.062500
v 0.062500 0.125000 -0.062500
v -0.044194 0.125000 0.044194
v -0.044194 -0.500000 0.044194
v 0.044194 0.125000 -0.044194
v 0.044194 -0.500000 -0.044194
v -0.044194 0.125000 -0.044194
v -0.044194 -0.500000 -0.044194
v 0.044194 0.125000 0.044194
v 0.044194 -0.500000 0.044194
vn -1.0000 -0.0000 -0.0000
vn -0.0000 -0.0000 -1.0000
vn 1.0000 -0.0000 -0.0000
vn -0.0000 -0.0000 1.0000
vn -0.0000 1.0000 -0.0000
vn 0.7071 -0.0000 -0.7071
vn 0.7071 -0.0000 0.7071
vn -0.3572 0.9340 -0.0000
vn -0.3572 -0.9340 -0.0000
vn -0.0000 -0.9340 -0.3572
vn -0.0000 0.9340 -0.3572
vn 0.3572 0.9340 -0.0000
vn -0.0000 -0.9340 0.3572
vn 0.3572 -0.9340 -0.0000
vn -0.0000 0.9340 0.3572
vn -0.0000 -1.0000 -0.0000
vn -0.7071 -0.0000 -0.7071
vt 0.125000 0.812500
vt 0.125000 0.875000
vt 0.000000 0.875000
vt 0.000000 0.812500
vt 0.125000 1.000000
vt 0.000000 1.000000
vt 0.500000 0.687500
vt 0.500000 0.812500
vt 0.625000 0.812500
vt 0.625000 0.687500
vt 0.375000 0.812500
vt 0.375000 0.687500
vt 0.125000 0.375000
vt 0.125000 0.562500
vt 0.000000 0.562500
vt 0.000000 0.375000
vt 0.125000 0.687500
vt 0.000000 0.687500
vt 0.187500 1.000000
vt 0.312500 1.000000
vt 0.312500 0.375000
vt 0.187500 0.375000
vt 0.312500 0.375000
vt 0.187500 0.375000
s 0
g Hanging_Propagule_1_Propagule
usemtl Propagule
f 13/1/1 1/2/1 2/3/1 37/4/1
f 37/1/2 2/2/2 4/3/2 16/4/2
f 16/1/3 4/2/3 3/3/3 39/4/3
f 39/1/4 3/2/4 1/3/4 13/4/4
f 4/5/5 2/6/5 1/3/5 3/2/5
f 5/2/6 6/5/6 8/6/6 7/3/6
f 9/2/7 10/5/7 12/6/7 11/3/7
f 13/7/8 37/8/8 15/9/8 14/10/8
f 39/8/9 16/7/9 18/10/9 17/9/9
f 13/10/10 39/7/10 20/8/10 19/9/10
f 37/7/11 16/10/11 22/9/11 21/8/11
f 23/8/12 24/11/12 25/12/12 27/7/12
f 26/7/13 28/8/13 29/11/13 27/12/13
f 30/7/14 31/12/14 32/11/14 26/8/14
f 30/12/15 33/11/15 34/8/15 23/7/15
f 35/13/1 13/14/1 37/15/1 36/16/1
f 36/13/2 37/14/2 16/15/2 40/16/2
f 40/13/3 16/14/3 39/15/3 38/16/3
f 38/13/4 39/14/4 13/15/4 35/16/4
f 36/15/16 40/14/16 38/17/16 35/18/16
f 41/19/17 43/20/17 44/21/17 42/22/17
f 45/19/6 47/20/6 48/23/6 46/24/6
