# Blender 3.4.1
# www.blender.org
mtllib mcl_lectern_lectern_with_book.mtl
o Lectern_Cube.012
o Lectern_Cube.001
o Lectern_Cube.002
o Lectern_Cube.003
v 0.000000 0.437473 0.234923
v -0.062500 0.470509 0.222899
v -0.125000 0.470509 0.222899
v -0.187500 0.466838 0.224235
v -0.250000 0.437473 0.234923
v 0.250000 0.437473 0.234923
v -0.250000 0.266463 -0.234923
v 0.250000 0.266463 -0.234923
v 0.062500 0.470509 0.222899
v 0.125000 0.470509 0.222899
v 0.187500 0.466838 0.224235
v 0.187500 0.295828 -0.245611
v 0.125000 0.299499 -0.246947
v 0.062500 0.299499 -0.246947
v 0.000000 0.266463 -0.234923
v -0.062500 0.299499 -0.246947
v -0.125000 0.299499 -0.246947
v -0.187500 0.295828 -0.245611
v -0.062500 0.437510 0.234910
v -0.125000 0.437510 0.234910
v -0.187500 0.437510 0.234910
v 0.062500 0.437510 0.234910
v 0.125000 0.437510 0.234910
v 0.187500 0.437510 0.234910
vn -0.4903 0.8190 -0.2981
vn -0.0000 0.9397 -0.3420
vn 0.0624 0.9379 -0.3414
vn 0.4472 0.8405 -0.3059
vn -0.4472 0.8405 -0.3059
vn 0.4903 0.8190 -0.2981
vn -0.0624 0.9379 -0.3414
vn -0.0000 0.3420 0.9397
vt 0.125000 1.000000
vt 0.125000 0.750000
vt 0.156250 1.000000
vt 0.156250 0.734375
vt 0.187500 1.000000
vt 0.218750 1.000000
vt 0.218750 0.734375
vt 0.250000 1.000000
vt 0.250000 0.750000
vt -0.000000 1.000000
vt 0.000000 0.750000
vt 0.250000 0.750000
vt -0.000000 0.750000
vt 0.093750 1.000000
vt 0.093750 0.734375
vt 0.062500 1.000000
vt 0.031250 1.000000
vt 0.031250 0.734375
vt 0.031250 0.750000
vt 0.062500 0.750000
vt 0.093750 0.750000
vt 0.125000 0.750000
vt 0.156250 0.750000
vt 0.187500 0.750000
vt 0.218750 0.750000
vt 0.156250 0.750000
vt 0.218750 0.750000
vt 0.093750 0.750000
vt 0.031250 0.750000
s 0
f 14/21/1 15/22/1 1/1/1 9/14/1
f 13/20/2 14/21/2 9/14/2 10/16/2
f 12/19/3 13/20/3 10/16/3 11/17/3
f 8/13/4 12/19/4 11/17/4 6/10/4
f 18/25/5 7/12/5 5/8/5 4/6/5
f 15/22/6 16/23/6 2/3/6 1/1/6
f 16/23/2 17/24/2 3/5/2 2/3/2
f 17/24/7 18/25/7 4/6/7 3/5/7
f 9/15/8 1/2/8 22/28/8
f 11/18/8 24/29/8 6/11/8
f 2/4/8 19/26/8 1/2/8
f 4/7/8 5/9/8 21/27/8
l 3 20
l 10 23
o Lectern_Cube.004
v 0.179604 0.312500 -0.062500
v -0.179604 0.312500 -0.062500
v 0.179604 0.363193 0.205629
v -0.179604 0.363193 0.205629
v 0.179604 -0.375000 -0.062500
v -0.179604 -0.375000 -0.062500
v 0.179604 -0.375000 0.205629
v -0.179604 -0.375000 0.205629
v 0.311850 -0.500000 0.312500
v 0.311850 -0.375000 0.312500
v -0.311649 -0.500000 0.312500
v -0.311649 -0.375000 0.312500
v 0.311850 -0.500000 -0.312500
v 0.311850 -0.375000 -0.312500
v -0.311649 -0.500000 -0.312500
v -0.311649 -0.375000 -0.312500
v 0.312500 0.186356 -0.272278
v 0.312500 0.245087 -0.293654
v 0.312500 0.400118 0.315030
v 0.312500 0.458849 0.293654
v -0.312500 0.186356 -0.272278
v -0.312500 0.245087 -0.293654
v -0.312500 0.400118 0.315030
v -0.312500 0.458849 0.293654
v 0.312500 0.207732 -0.213547
v 0.312500 0.266463 -0.234923
v -0.312500 0.207732 -0.213547
v -0.312500 0.266463 -0.234923
v -0.312500 0.325194 -0.256299
v -0.312500 0.303817 -0.315030
v 0.312500 0.303817 -0.315030
v 0.312500 0.325194 -0.256299
v 0.151506 0.084133 0.146440
v -0.157381 0.084133 0.146440
v -0.157381 -0.203113 0.146441
v 0.151506 -0.203113 0.146441
v 0.151523 0.084130 -0.062500
v -0.157397 0.084130 -0.062500
v 0.151523 -0.203120 -0.062500
v -0.157397 -0.203120 -0.062500
v 0.151768 0.044855 0.077978
v 0.064092 -0.203638 0.077978
v 0.151797 0.044842 -0.062023
v 0.064120 -0.203654 -0.062023
v 0.028419 -0.191051 0.077979
v 0.116095 0.057441 0.077979
v 0.116124 0.057428 -0.062022
v 0.028447 -0.191068 -0.062022
vn 1.0000 -0.0000 -0.0000
vn -0.0000 -0.0000 1.0000
vn -0.0000 -0.0000 -1.0000
vn -1.0000 -0.0000 -0.0000
vn -0.0000 1.0000 -0.0000
vn -0.0000 0.3420 0.9397
vn -0.0000 -0.3420 -0.9397
vn -0.0000 -0.9397 0.3420
vn -0.0000 0.9397 -0.3420
vn -0.0000 -1.0000 -0.0000
vn -1.0000 -0.0000 -0.0001
vn 1.0000 -0.0000 -0.0001
vn 0.9430 -0.3327 0.0002
vn -0.9430 0.3327 -0.0002
vn 0.3327 0.9430 -0.0000
vn -0.3327 -0.9430 -0.0000
vt 0.000000 0.000000
vt 0.343750 -0.000000
vt 0.312500 0.000000
vt -0.000000 -0.000000
vt 0.312500 0.000000
vt 0.000000 0.000000
vt 0.312500 0.000000
vt 0.000000 0.000000
vt 0.000000 0.437500
vt 0.343750 0.625000
vt 0.312500 0.437500
vt -0.000000 0.625000
vt 0.312500 0.437500
vt 0.000000 0.437500
vt 0.312500 0.437500
vt 0.000000 0.437500
vt 0.312500 0.593750
vt 0.000000 0.593750
vt 0.312500 0.656250
vt 0.000000 0.656250
vt 1.000000 1.000000
vt 0.000000 0.593750
vt 0.312500 0.593750
vt 0.000000 0.656250
vt 0.312500 0.656250
vt 1.000000 0.437500
vt 0.000000 0.593750
vt 0.312500 0.593750
vt 0.000000 0.656250
vt 0.312500 0.656250
vt 0.437500 0.996900
vt 0.000000 0.593750
vt 0.312500 0.593750
vt 0.000000 0.656250
vt 0.312500 0.656250
vt 0.437500 0.437500
vt 0.126550 0.317914
vt 0.128100 -0.002337
vt 0.065600 -0.002337
vt 0.190600 0.310163
vt 0.128100 0.310163
vt 0.315600 0.310163
vt 0.437500 1.000000
vt 0.064050 0.317914
vt 0.253100 0.310163
vt 1.000000 1.000000
vt 0.126550 0.005414
vt 0.046998 0.011615
vt 0.190600 -0.002337
vt 0.315600 -0.002337
vt 0.437500 0.437500
vt 0.109498 0.324115
vt 0.253100 -0.002337
vt 1.000000 0.437500
vt 0.065600 0.310163
vt 1.000000 1.000000
vt 0.046998 0.324115
vt 0.126550 0.036664
vt 0.437500 1.000000
vt 0.064050 0.036664
vt 1.000000 0.437500
vt 0.064050 0.005414
vt 0.128100 0.028913
vt 0.437500 0.437500
vt 0.065600 0.028913
vt 0.437500 0.684400
vt 0.003100 0.028913
vt 0.068061 0.003864
vt 0.375000 0.684400
vt 0.003100 -0.002337
vt 0.005561 0.003864
vt 0.253100 -0.002337
vt 0.005561 0.316364
vt 0.001550 0.005414
vt 0.251550 0.317914
vt 0.068061 0.316364
vt 0.375000 0.996900
vt 0.001550 0.036664
vt 0.687500 0.375000
vt 0.312500 0.375000
vt 0.687500 0.375000
vt 0.312500 0.000000
vt 0.312500 0.375000
vt 0.687500 0.000000
vt 0.687500 0.375000
vt 0.312500 0.375000
vt 0.312500 0.218750
vt 0.687500 -0.000000
vt 0.031250 0.218750
vt 0.312500 -0.000000
vt 0.687500 -0.000000
vt 0.312500 0.468750
vt 0.687500 -0.000000
vt 0.312500 -0.000000
vt 0.031250 0.468750
vt 0.312500 -0.000000
vt 0.937500 -0.000000
vt 0.937500 0.437500
vt 0.937500 0.437500
vt 1.000000 0.437500
vt 0.687500 0.000000
vt 0.937500 0.218750
vt 0.750000 0.000000
vt 0.687500 0.437500
vt 0.750000 0.437500
vt 1.000000 0.218750
vt 0.937500 0.000000
vt 1.000000 0.437500
vt 0.937500 0.437500
vt 0.937500 0.437500
vt 1.000000 -0.000000
vt 1.000000 0.437500
vt 0.687500 0.437500
vt 1.000000 0.218750
vt 0.687500 0.000000
vt 0.687500 0.000000
vt 0.687500 0.437500
vt 0.937500 0.218750
s 0
usemtl Material.003
f 25/30/9 27/34/9 31/42/9 29/38/9
f 27/35/10 28/36/10 32/44/10 31/43/10
f 33/46/10 34/48/10 36/53/10 35/51/10
f 60/113/11 59/111/11 58/109/11 57/108/11
f 32/45/12 28/37/12 26/32/12 30/40/12
f 35/52/12 36/54/12 40/63/12 39/61/12
f 39/62/11 40/64/11 38/58/11 37/56/11
f 37/57/9 38/59/9 34/49/9 33/47/9
f 40/65/13 36/55/13 34/50/13 38/60/13
f 49/87/9 50/89/9 44/73/9 43/70/9
f 43/71/14 44/74/14 48/82/14 47/79/14
f 51/92/12 52/94/12 46/77/12 45/76/12
f 45/76/15 46/78/15 42/69/15 41/66/15
f 46/77/12 52/94/12 53/96/12 54/99/12
f 49/85/16 43/72/16 47/80/16 51/90/16
f 41/66/16 49/86/16 51/91/16 45/76/16
f 48/83/17 44/75/17 50/88/17 52/93/17
f 47/81/12 48/84/12 52/94/12 51/92/12
f 41/67/9 42/68/9 50/89/9 49/87/9
f 53/97/17 56/105/17 55/102/17 54/100/17
f 52/95/14 50/88/14 56/106/14 53/98/14
f 50/89/9 42/68/9 55/103/9 56/107/9
f 42/69/15 46/78/15 54/101/15 55/104/15
f 61/116/11 62/118/11 26/33/11 25/31/11
f 63/121/11 61/116/11 25/31/11 29/39/11
f 64/124/11 63/121/11 29/39/11 30/41/11
f 62/118/11 64/124/11 30/41/11 26/33/11
f 57/108/18 58/109/18 62/119/18 61/117/18
f 59/112/13 60/114/13 63/122/13 64/125/13
f 60/115/19 57/108/19 61/117/19 63/123/19
f 58/110/20 59/112/20 64/125/20 62/120/20
f 68/133/21 67/130/21 65/126/21 66/128/21
f 69/136/22 70/139/22 71/142/22 72/145/22
f 65/126/10 70/140/10 69/137/10 66/128/10
f 67/131/23 71/143/23 70/141/23 65/127/23
f 68/134/11 72/146/11 71/144/11 67/132/11
f 66/129/24 69/138/24 72/147/24 68/135/24
