# Blender 4.4.0
# www.blender.org
mtllib mcl_lush_caves_spore_blossom.mtl
o Plane
v 0.500000 0.492188 0.500000
v 0.500000 0.492188 -0.500000
v -0.500000 0.492188 0.500000
v -0.500000 0.492188 -0.500000
v 0.001133 0.487682 0.500000
v 0.001133 0.487682 -0.500000
v -0.723311 0.293568 0.500000
v -0.723311 0.293568 -0.500000
v -0.001133 0.487682 -0.500000
v -0.001133 0.487682 0.500000
v 0.723311 0.293568 -0.500000
v 0.723311 0.293568 0.500000
v 0.500000 0.487682 -0.001133
v -0.500000 0.487682 -0.001133
v 0.500000 0.293568 0.723311
v -0.500000 0.293568 0.723311
v -0.500000 0.487682 0.001133
v 0.500000 0.487682 0.001133
v -0.500000 0.293568 -0.723311
v 0.500000 0.293568 -0.723311
vn -0.0000 1.0000 -0.0000
vn -0.2588 0.9659 -0.0000
vn 0.2588 0.9659 -0.0000
vn -0.0000 0.9659 0.2588
vn -0.0000 0.9659 -0.2588
vt 0.000000 0.000000
vt 1.000000 0.000000
vt 1.000000 1.000000
vt 0.000000 1.000000
vt 0.000000 0.250000
vt 1.000000 0.250000
s 0
g Plane_Base
usemtl Base
f 1/1/1 2/2/1 4/3/1 3/4/1
g Plane_Flower
usemtl Flower
f 5/3/2 6/4/2 8/5/2 7/6/2
f 9/3/3 10/4/3 12/5/3 11/6/3
f 13/3/4 14/4/4 16/5/4 15/6/4
f 17/3/5 18/4/5 20/5/5 19/6/5
