# Blender 4.4.0
# www.blender.org
mtllib mcl_lush_caves_spore_blossom.mtl
o Plane
v -0.500000 0.492188 0.500000
v 0.500000 0.492188 0.500000
v -0.500000 0.492188 -0.500000
v 0.500000 0.492188 -0.500000
vn -0.0000 1.0000 -0.0000
vt 0.000000 0.000000
vt 1.000000 0.000000
vt 1.000000 1.000000
vt 0.000000 1.000000
s 0
g Plane_Base
usemtl Base
f 1/1/1 2/2/1 4/3/1 3/4/1
o Plane.001
v 0.001411 0.488784 0.500000
v 0.967337 0.229964 0.500000
v 0.001411 0.488784 -0.500000
v 0.967337 0.229964 -0.500000
vn 0.2588 0.9659 -0.0000
vt 1.000000 0.000000
vt 1.000000 1.000000
vt 0.000000 1.000000
vt 0.000000 0.000000
s 0
g Plane.001_Flower
usemtl Flower
f 5/5/2 6/6/2 8/7/2 7/8/2
o Plane.002
v -0.967337 0.229964 0.500000
v -0.001411 0.488784 0.500000
v -0.967337 0.229964 -0.500000
v -0.001411 0.488784 -0.500000
vn -0.2588 0.9659 -0.0000
vt 0.000000 1.000000
vt 0.000000 0.000000
vt 1.000000 0.000000
vt 1.000000 1.000000
s 0
g Plane.002_Flower
usemtl Flower
f 9/9/3 10/10/3 12/11/3 11/12/3
o Plane.003
v -0.500000 0.229964 -0.967337
v -0.500000 0.488783 -0.001411
v 0.500000 0.229964 -0.967337
v 0.500000 0.488783 -0.001411
vn -0.0000 0.9659 -0.2588
vt 0.000000 1.000000
vt 0.000000 0.000000
vt 1.000000 0.000000
vt 1.000000 1.000000
s 0
g Plane.003_Flower
usemtl Flower
f 13/13/4 14/14/4 16/15/4 15/16/4
o Plane.004
v -0.500000 0.488783 0.001411
v -0.500000 0.229964 0.967337
v 0.500000 0.488783 0.001411
v 0.500000 0.229964 0.967337
vn -0.0000 0.9659 0.2588
vt 1.000000 0.000000
vt 1.000000 1.000000
vt 0.000000 1.000000
vt 0.000000 0.000000
s 0
g Plane.004_Flower
usemtl Flower
f 17/17/5 18/18/5 20/19/5 19/20/5
