# Blender 4.4.0
# www.blender.org
mtllib mcl_bows_arrow.mtl
o Cube
v 4.000000 1.000000 -1.000000
v 4.000000 -1.000000 -1.000000
v 4.000000 1.000000 1.000000
v 4.000000 -1.000000 1.000000
v 2.000000 1.000000 -1.000000
v 2.000000 -1.000000 -1.000000
v 2.000000 1.000000 1.000000
v 2.000000 -1.000000 1.000000
vn -0.0000 1.0000 -0.0000
vn -0.0000 -0.0000 1.0000
vn -1.0000 -0.0000 -0.0000
vn -0.0000 -1.0000 -0.0000
vn 1.0000 -0.0000 -0.0000
vn -0.0000 -0.0000 -1.0000
vt 0.625000 0.500000
vt 0.875000 0.500000
vt 0.875000 0.750000
vt 0.625000 0.750000
vt 0.375000 0.750000
vt 0.625000 1.000000
vt 0.375000 1.000000
vt 0.375000 0.000000
vt 0.625000 0.000000
vt 0.625000 0.250000
vt 0.375000 0.250000
vt 0.125000 0.500000
vt 0.375000 0.500000
vt 0.125000 0.750000
s 0
usemtl Material
f 1/1/1 5/2/1 7/3/1 3/4/1
f 4/5/2 3/4/2 7/6/2 8/7/2
f 8/8/3 7/9/3 5/10/3 6/11/3
f 6/12/4 2/13/4 4/5/4 8/14/4
f 2/13/5 1/1/5 3/4/5 4/5/5
f 6/11/6 5/10/6 1/1/6 2/13/6
o Plane
v 6.782006 1.444249 -0.000500
v 6.782006 -1.443249 -0.000500
v -0.782006 -1.443249 -0.000500
v -0.782006 1.444249 -0.000500
v 6.331104 -1.100076 -1.064829
v 6.331104 1.069925 -1.064830
v 6.331104 1.069925 1.085017
v 6.331104 -1.100076 1.085017
v 6.782006 0.001000 -1.443750
v -0.782006 0.001000 -1.443749
v -0.782006 0.001000 1.443750
v 6.782006 0.001000 1.443749
v 6.782006 1.444249 0.000500
v -0.782006 1.444249 0.000500
v -0.782006 -1.443249 0.000500
v 6.782006 -1.443249 0.000500
v 6.782006 -0.000000 -1.443750
v 6.782006 0.000000 1.443749
v -0.782006 0.000000 1.443750
v -0.782006 -0.000000 -1.443749
vn -0.0000 -0.0000 -1.0000
vn 1.0000 -0.0000 -0.0000
vn -0.0000 1.0000 -0.0000
vn -0.0000 -0.0000 1.0000
vn -0.0000 -1.0000 -0.0000
vt -0.000893 0.835148
vt -0.000893 1.008567
vt 0.486244 1.008567
vt 0.486244 0.835148
vt 0.159016 0.682983
vt 0.159016 0.849928
vt -0.005031 0.849928
vt -0.005031 0.682983
s 1
usemtl Material.002
f 9/15/7 10/16/7 11/17/7 12/18/7
f 13/19/8 14/20/8 15/21/8 16/22/8
f 17/15/9 18/18/9 19/17/9 20/16/9
f 21/15/10 22/18/10 23/17/10 24/16/10
f 25/15/11 26/16/11 27/17/11 28/18/11
