# Blender 3.6.23
# www.blender.org
mtllib mcl_shelfs_shelf_powered_right.mtl
o Shelf
v -0.500000 -0.250000 0.312500
v 0.500000 0.500000 0.500000
v 0.500000 -0.500000 0.500000
v 0.500000 -0.500000 0.312500
v -0.500000 0.500000 0.500000
v -0.500000 -0.500000 0.500000
v 0.500000 -0.250000 0.312500
v 0.500000 -0.250000 0.187500
v 0.500000 -0.500000 0.187500
v -0.500000 -0.250000 0.187500
v -0.500000 -0.500000 0.187500
v -0.500000 -0.500000 0.312500
v 0.500000 0.500000 0.312500
v 0.500000 0.500000 0.187500
v 0.500000 0.250000 0.312500
v 0.500000 0.250000 0.187500
v -0.500000 0.500000 0.187500
v -0.500000 0.500000 0.312500
v -0.500000 0.250000 0.187500
v -0.500000 0.250000 0.312500
vn -0.0000 -0.0000 -1.0000
vn 1.0000 -0.0000 -0.0000
vn -0.0000 -0.0000 1.0000
vn -1.0000 -0.0000 -0.0000
vn -0.0000 1.0000 -0.0000
vn -0.0000 -1.0000 -0.0000
vt 0.000000 0.250000
vt 0.500000 0.250000
vt 0.500000 0.500000
vt 0.000000 0.500000
vt 0.593750 0.500000
vt 0.593750 1.000000
vt 0.500000 1.000000
vt 1.000000 0.500000
vt 1.000000 1.000000
vt 0.906250 0.500000
vt 0.906250 1.000000
vt 1.000000 0.781250
vt 0.500000 0.781250
vt 0.500000 0.687500
vt 1.000000 0.687500
vt 1.000000 0.718750
vt 0.500000 0.718750
vt 0.500000 0.625000
vt 1.000000 0.625000
vt 0.000000 0.625000
vt 0.093750 0.500000
vt 0.156250 0.500000
vt 0.156250 0.625000
vt 0.093750 0.625000
vt 0.000000 0.937500
vt 0.500000 0.937500
vt 0.000000 1.000000
vt 0.343750 0.500000
vt 0.406250 0.500000
vt 0.406250 0.625000
vt 0.343750 0.625000
vt 0.000000 0.875000
vt 0.500000 0.875000
vt 0.093750 0.875000
vt 0.156250 0.875000
vt 0.156250 1.000000
vt 0.093750 1.000000
vt 0.343750 0.875000
vt 0.406250 0.875000
vt 0.406250 1.000000
vt 0.343750 1.000000
s 0
g Shelf_Shelf
usemtl Shelf
f 7/1/1 1/2/1 20/3/1 15/4/1
f 3/3/2 4/5/2 13/6/2 2/7/2
f 6/3/3 3/8/3 2/9/3 5/7/3
f 12/10/4 6/8/4 5/9/4 18/11/4
f 5/12/5 2/13/5 13/14/5 18/15/5
f 12/16/6 4/17/6 3/18/6 6/19/6
f 9/4/1 11/3/1 10/18/1 8/20/1
f 4/21/2 9/22/2 8/23/2 7/24/2
f 12/25/3 4/26/3 7/7/3 1/27/3
f 11/28/4 12/29/4 1/30/4 10/31/4
f 1/17/5 7/16/5 8/12/5 10/13/5
f 11/12/6 9/13/6 4/17/6 12/16/6
f 16/32/1 19/33/1 17/7/1 14/27/1
f 15/34/2 16/35/2 14/36/2 13/37/2
f 20/25/3 15/26/3 13/7/3 18/27/3
f 19/38/4 20/39/4 18/40/4 17/41/4
f 18/15/5 13/14/5 14/18/5 17/19/5
f 19/18/6 16/19/6 15/15/6 20/14/6
