# Blender 4.4.0
# www.blender.org
mtllib mcl_anvils_anvil.mtl
o Anvil
v -0.250000 -0.187500 0.125000
v -0.250000 0.125000 0.125000
v -0.250000 -0.187500 -0.125000
v -0.250000 0.125000 -0.125000
v 0.250000 -0.187500 0.125000
v 0.250000 0.125000 0.125000
v 0.250000 -0.187500 -0.125000
v 0.250000 0.125000 -0.125000
v -0.375000 -0.500000 0.375000
v -0.375000 -0.250000 0.375000
v -0.375000 -0.500000 -0.375000
v -0.375000 -0.250000 -0.375000
v 0.375000 -0.500000 0.375000
v 0.375000 -0.250000 0.375000
v 0.375000 -0.500000 -0.375000
v 0.375000 -0.250000 -0.375000
v -0.312500 -0.250000 0.250000
v -0.312500 -0.187500 0.250000
v -0.312500 -0.250000 -0.250000
v -0.312500 -0.187500 -0.250000
v 0.312500 -0.250000 0.250000
v 0.312500 -0.187500 0.250000
v 0.312500 -0.250000 -0.250000
v 0.312500 -0.187500 -0.250000
v -0.500000 0.125000 0.312500
v -0.500000 0.500000 0.312500
v -0.500000 0.125000 -0.312500
v -0.500000 0.500000 -0.312500
v 0.500000 0.125000 0.312500
v 0.500000 0.500000 0.312500
v 0.500000 0.125000 -0.312500
v 0.500000 0.500000 -0.312500
vn -1.0000 -0.0000 -0.0000
vn -0.0000 -0.0000 -1.0000
vn 1.0000 -0.0000 -0.0000
vn -0.0000 -0.0000 1.0000
vn -0.0000 -1.0000 -0.0000
vn -0.0000 1.0000 -0.0000
vt 0.625000 0.312500
vt 0.625000 0.625000
vt 0.375000 0.625000
vt 0.375000 0.312500
vt 0.750000 0.312500
vt 0.750000 0.625000
vt 0.250000 0.625000
vt 0.250000 0.312500
vt 0.875000 0.000000
vt 0.875000 0.250000
vt 0.125000 0.250000
vt 0.125000 0.000000
vt 0.125000 0.125000
vt 0.875000 0.125000
vt 0.875000 0.875000
vt 0.125000 0.875000
vt 0.750000 0.250000
vt 0.250000 0.250000
vt 0.812500 0.250000
vt 0.812500 0.312500
vt 0.187500 0.312500
vt 0.187500 0.250000
vt 0.812500 0.750000
vt 0.187500 0.750000
vt 0.812500 0.625000
vt 0.812500 1.000000
vt 0.187500 1.000000
vt 0.187500 0.625000
vt 1.000000 0.625000
vt 1.000000 1.000000
vt 0.000000 1.000000
vt 0.000000 0.625000
vt 0.000000 0.187500
vt 1.000000 0.187500
vt 1.000000 0.812500
vt 0.000000 0.812500
vt 0.187500 0.000000
vt 0.812500 0.000000
s 0
g Anvil_Base
usemtl Base
f 1/1/1 2/2/1 4/3/1 3/4/1
f 3/5/2 4/6/2 8/7/2 7/8/2
f 7/1/3 8/2/3 6/3/3 5/4/3
f 5/5/4 6/6/4 2/7/4 1/8/4
f 9/9/1 10/10/1 12/11/1 11/12/1
f 11/9/2 12/10/2 16/11/2 15/12/2
f 15/9/3 16/10/3 14/11/3 13/12/3
f 13/9/4 14/10/4 10/11/4 9/12/4
f 11/13/5 15/14/5 13/15/5 9/16/5
f 16/15/6 12/16/6 10/13/6 14/14/6
f 17/17/1 18/5/1 20/8/1 19/18/1
f 19/19/2 20/20/2 24/21/2 23/22/2
f 23/17/3 24/5/3 22/8/3 21/18/3
f 21/19/4 22/20/4 18/21/4 17/22/4
f 24/23/6 20/24/6 18/22/6 22/19/6
f 25/25/1 26/26/1 28/27/1 27/28/1
f 27/29/2 28/30/2 32/31/2 31/32/2
f 31/25/3 32/26/3 30/27/3 29/28/3
f 29/29/4 30/30/4 26/31/4 25/32/4
f 27/33/5 31/34/5 29/35/5 25/36/5
g Anvil_Top
usemtl Top
f 32/27/6 28/37/6 26/38/6 30/26/6
