# Made in Blockbench 4.12.4
mtllib mcl_bamboo_shoot.mtl

o plane
v 1.457167719820518e-16 0.5 0.1875
v 1.457167719820518e-16 0.5 -0.1875
v -1.457167719820518e-16 -0.5 -0.1875
v -1.457167719820518e-16 -0.5 0.1875
v 0.1875 0.5 -3.46077333457373e-15
v -0.1875 0.5 -3.46077333457373e-15
v -0.1875 -0.5 3.46077333457373e-15
v 0.1875 -0.5 3.46077333457373e-15
vt 0.375 1
vt 0.75 1
vt 0.75 0
vt 0.375 0
vt 0.75 1
vt 0.375 1
vt 0.375 0
vt 0.75 0
vn -1 2.914335439641036e-16 0
vn 0 6.92154666914746e-15 1
usemtl m_06e33594-4ccd-c8bc-4f17-47273296ebf2
f 1/1/1 2/2/1 3/3/1 4/4/1
f 5/5/2 6/6/2 7/7/2 8/8/2