# Blender v3.6.21 OBJ File: ''
# www.blender.org
mtllib mcl_bamboo_big.mtl
v 0.093750 -0.500000 -0.093750
v -0.093750 -0.500000 -0.093750
v -0.093750 0.500000 -0.093750
v 0.093750 0.500000 -0.093750
v 0.093750 -0.500000 0.093750
v 0.093750 0.500000 0.093750
v -0.093750 -0.500000 0.093750
v -0.093750 0.500000 0.093750
vt 0.000000 0.000000
vt 0.187500 0.000000
vt 0.187500 1.000000
vt 0.000000 1.000000
vt 0.000000 0.000000
vt 0.187500 0.000000
vt 0.187500 1.000000
vt 0.000000 1.000000
vt 0.000000 0.000000
vt 0.187500 0.000000
vt 0.187500 1.000000
vt 0.000000 1.000000
vt 0.000000 0.000000
vt 0.187500 0.000000
vt 0.187500 1.000000
vt 0.000000 1.000000
vt 0.187500 0.812500
vt 0.375000 0.812500
vt 0.375000 1.000000
vt 0.187500 0.812500
vt 0.375000 0.812500
vt 0.375000 1.000000
vt 0.187500 1.000000
vn 0.0000 -0.0000 -1.0000
vn 1.0000 0.0000 0.0000
vn 0.0000 0.0000 1.0000
vn -1.0000 0.0000 0.0000
vn 0.0000 1.0000 0.0000
vn 0.0000 -1.0000 0.0000
g cube.002_cube.002_m_5d16c0fd-45b2-e4fe-0476-225d997fd63b.003
usemtl m_5d16c0fd-45b2-e4fe-0476-225d997fd63b.003
s 1
f 1/1/1 2/2/1 3/3/1 4/4/1
f 5/5/2 1/6/2 4/7/2 6/8/2
f 7/9/3 5/10/3 6/11/3 8/12/3
f 2/13/4 7/14/4 8/15/4 3/16/4
f 8/17/5 6/18/5 4/19/5 3/3/5
f 2/20/6 1/21/6 5/22/6 7/23/6
v 0.000000 -0.500000 -0.500000
v 0.000000 0.500000 -0.500000
v 0.000000 0.500000 -0.062500
v 0.000000 -0.500000 -0.062500
v 0.000000 -0.500000 0.500000
v 0.000000 0.500000 0.500000
v 0.000000 0.500000 0.062500
v 0.000000 -0.500000 0.062500
vt 0.000000 0.000000
vt 0.000000 1.000000
vt 0.437500 1.000000
vt 0.437500 0.000000
vt 0.937500 0.000000
vt 0.937500 1.000000
vt 0.500000 1.000000
vt 0.500000 0.000000
vn 1.0000 0.0000 0.0000
vn -1.0000 0.0000 0.0000
g plane.003_plane.003_m_5346e348-1c4c-86bc-1130-6007c5641287.001
usemtl m_5346e348-1c4c-86bc-1130-6007c5641287.001
s 1
f 9/24/7 10/25/7 11/26/7 12/27/7
f 13/28/8 14/29/8 15/30/8 16/31/8
v -0.500000 -0.500000 0.000000
v -0.500000 0.500000 -0.000000
v -0.062500 0.500000 -0.000000
v -0.062500 -0.500000 0.000000
v 0.500000 -0.500000 0.000000
v 0.500000 0.500000 -0.000000
v 0.062500 0.500000 -0.000000
v 0.062500 -0.500000 0.000000
vt 0.937500 0.000000
vt 0.937500 1.000000
vt 0.500000 1.000000
vt 0.500000 0.000000
vt 0.000000 0.000000
vt 0.000000 1.000000
vt 0.437500 1.000000
vt 0.437500 0.000000
vn 0.0000 -0.0000 -1.0000
vn 0.0000 0.0000 1.0000
g plane.004_plane.004_m_5346e348-1c4c-86bc-1130-6007c5641287.001
usemtl m_5346e348-1c4c-86bc-1130-6007c5641287.001
s 1
f 17/32/9 18/33/9 19/34/9 20/35/9
f 21/36/10 22/37/10 23/38/10 24/39/10
