# Blender 4.3.1
# www.blender.org
mtllib mcl_tripwire_hooks_hook_powered.mtl
o Cube.002
v -0.062500 -0.062500 -0.109375
v -0.187500 -0.062500 -0.234375
v 0.062500 -0.062500 -0.109375
v 0.187500 -0.062500 -0.234375
v -0.062500 -0.000000 -0.109375
v -0.187500 -0.000000 -0.234375
v 0.062500 0.000000 -0.109375
v 0.187500 0.000000 -0.234375
v -0.187500 -0.062500 0.140625
v -0.062500 -0.062500 0.015625
v 0.187500 -0.062500 0.140625
v 0.062500 -0.062500 0.015625
v -0.187500 -0.000000 0.140625
v -0.062500 -0.000000 0.015625
v 0.187500 0.000000 0.140625
v 0.062500 0.000000 0.015625
v -0.187500 -0.062500 -0.234375
v -0.062500 -0.062500 -0.109375
v -0.187500 -0.062500 0.140625
v -0.062500 -0.062500 0.015625
v -0.187500 -0.000000 -0.234375
v -0.062500 -0.000000 -0.109375
v -0.187500 -0.000000 0.140625
v -0.062500 -0.000000 0.015625
v 0.062500 -0.062500 -0.109375
v 0.187500 -0.062500 -0.234375
v 0.062500 -0.062500 0.015625
v 0.187500 -0.062500 0.140625
v 0.062500 0.000000 -0.109375
v 0.187500 0.000000 -0.234375
v 0.062500 0.000000 0.015625
v 0.187500 0.000000 0.140625
vn -0.0000 -1.0000 -0.0000
vn -0.0000 1.0000 -0.0000
vn -0.0000 -0.0000 1.0000
vn -0.0000 -0.0000 -1.0000
vn -1.0000 -0.0000 -0.0000
vn 1.0000 -0.0000 -0.0000
vt 0.875000 0.250000
vt 1.000000 0.375000
vt 0.625000 0.375000
vt 0.750000 0.250000
vt 0.250000 0.875000
vt 0.375000 1.000000
vt 0.000000 1.000000
vt 0.125000 0.875000
vt 0.125000 0.000000
vt 0.125000 0.062500
vt 0.000000 0.062500
vt 0.000000 0.000000
vt 1.000000 0.437500
vt 0.625000 0.437500
vt 1.000000 0.000000
vt 0.875000 0.125000
vt 0.750000 0.125000
vt 0.625000 0.000000
vt 0.375000 0.625000
vt 0.250000 0.750000
vt 0.125000 0.750000
vt 0.000000 0.625000
vt 0.375000 0.562500
vt 0.000000 0.562500
vt 0.125000 0.125000
vt 0.000000 0.125000
vt 1.000000 0.000000
vt 0.375000 0.500000
vt 0.000000 0.500000
vt 1.000000 0.937500
vt 1.000000 1.000000
vt 0.875000 1.000000
vt 0.875000 0.937500
vt 1.000000 0.875000
vt 0.875000 0.875000
vt 1.000000 0.500000
vt 0.625000 0.500000
s 0
g Cube.002_Stone
usemtl Stone
f 1/1/1 2/2/1 4/3/1 3/4/1
f 7/5/2 8/6/2 6/7/2 5/8/2
f 3/9/3 7/10/3 5/11/3 1/12/3
f 8/2/4 4/13/4 2/14/4 6/3/4
f 9/15/1 10/16/1 12/17/1 11/18/1
f 15/19/2 16/20/2 14/21/2 13/22/2
f 11/23/3 15/19/3 13/22/3 9/24/3
f 16/10/4 12/25/4 10/26/4 14/11/4
f 17/2/1 18/1/1 20/16/1 19/27/1
f 23/22/2 24/21/2 22/8/2 21/7/2
f 19/28/5 23/23/5 21/24/5 17/29/5
f 24/30/6 20/31/6 18/32/6 22/33/6
f 25/4/1 26/3/1 28/18/1 27/17/1
f 31/20/2 32/19/2 30/6/2 29/5/2
f 27/34/5 31/30/5 29/33/5 25/35/5
f 32/13/6 28/36/6 26/37/6 30/14/6
o Cube
v 0.125000 -0.250000 -0.500000
v 0.125000 0.250000 -0.500000
v 0.125000 -0.250000 -0.375000
v 0.125000 0.250000 -0.375000
v -0.125000 -0.250000 -0.500000
v -0.125000 0.250000 -0.500000
v -0.125000 -0.250000 -0.375000
v -0.125000 0.250000 -0.375000
vn 1.0000 -0.0000 -0.0000
vn -0.0000 -0.0000 1.0000
vn -1.0000 -0.0000 -0.0000
vn -0.0000 -1.0000 -0.0000
vn -0.0000 1.0000 -0.0000
vt 0.000000 0.500000
vt 0.000000 0.000000
vt 0.125000 0.000000
vt 0.125000 0.500000
vt 0.375000 0.500000
vt 0.375000 0.000000
vt 0.625000 0.000000
vt 0.625000 0.500000
vt 0.875000 0.500000
vt 0.875000 0.000000
vt 1.000000 0.000000
vt 1.000000 0.500000
vt 1.000000 1.000000
vt 0.750000 1.000000
vt 0.750000 0.875000
vt 1.000000 0.875000
vt 0.000000 0.875000
vt 0.250000 0.875000
vt 0.250000 1.000000
vt 0.000000 1.000000
s 0
g Cube_Wood
usemtl Wood
f 33/38/7 34/39/7 36/40/7 35/41/7
f 35/42/8 36/43/8 40/44/8 39/45/8
f 39/46/9 40/47/9 38/48/9 37/49/9
f 35/50/10 39/51/10 37/52/10 33/53/10
f 40/54/11 36/55/11 34/56/11 38/57/11
o Cube.001
v 0.062500 0.106694 -0.476333
v 0.062500 0.195083 -0.387944
v 0.062500 -0.070083 -0.299556
v 0.062500 0.018306 -0.211167
v -0.062500 0.106694 -0.476333
v -0.062500 0.195083 -0.387944
v -0.062500 -0.070083 -0.299556
v -0.062500 0.018306 -0.211167
vn 1.0000 -0.0000 -0.0000
vn -0.0000 -0.7071 0.7071
vn -1.0000 -0.0000 -0.0000
vn -0.0000 -0.7071 -0.7071
vn -0.0000 0.7071 0.7071
vt 0.250000 0.750000
vt 0.250000 0.875000
vt 0.000000 0.875000
vt 0.000000 0.750000
vt 0.437500 0.562500
vt 0.562500 0.562500
vt 0.562500 0.687500
vt 0.437500 0.687500
vt 1.000000 0.750000
vt 1.000000 0.875000
vt 0.750000 0.875000
vt 0.750000 0.750000
vt 0.250000 0.500000
vt 0.375000 0.500000
vt 0.375000 0.750000
vt 0.625000 0.500000
vt 0.750000 0.500000
vt 0.625000 0.750000
s 0
g Cube.001_Wood
usemtl Wood
f 41/58/12 42/59/12 44/60/12 43/61/12
f 43/62/13 44/63/13 48/64/13 47/65/13
f 47/66/14 48/67/14 46/68/14 45/69/14
f 43/70/15 47/71/15 45/72/15 41/58/15
f 48/73/16 44/74/16 42/69/16 46/75/16
