# Blender 4.3.1
# www.blender.org
mtllib mcl_tripwire_hooks_hook.mtl
o Cube
v 0.125000 0.250000 -0.375000
v 0.125000 -0.250000 -0.375000
v -0.125000 0.250000 -0.375000
v -0.125000 -0.250000 -0.375000
v 0.125000 0.250000 -0.500000
v 0.125000 -0.250000 -0.500000
v -0.125000 0.250000 -0.500000
v -0.125000 -0.250000 -0.500000
v -0.062500 -0.038833 -0.387944
v -0.062500 0.049556 -0.476333
v 0.062500 -0.038833 -0.387944
v 0.062500 0.049556 -0.476333
v -0.062500 0.137944 -0.211167
v -0.062500 0.226333 -0.299556
v 0.062500 0.137944 -0.211167
v 0.062500 0.226333 -0.299556
vn -0.0000 1.0000 -0.0000
vn -1.0000 -0.0000 -0.0000
vn -0.0000 -1.0000 -0.0000
vn -0.0000 -0.0000 1.0000
vn 1.0000 -0.0000 -0.0000
vn -0.0000 0.7071 0.7071
vn -0.0000 -0.7071 0.7071
vn -0.0000 0.7071 -0.7071
vt 0.250000 0.625000
vt 0.250000 0.750000
vt 0.000000 0.750000
vt 0.000000 0.625000
vt 0.000000 0.500000
vt 0.000000 0.000000
vt 0.125000 0.000000
vt 0.125000 0.500000
vt 0.250000 0.812500
vt 0.250000 0.937500
vt 0.000000 0.937500
vt 0.000000 0.812500
vt 0.250000 0.500000
vt 0.250000 0.000000
vt 0.500000 0.000000
vt 0.500000 0.500000
vt 0.625000 0.500000
vt 0.625000 0.625000
vt 0.375000 0.625000
vt 0.375000 0.500000
vt 0.500000 0.625000
vt 0.625000 0.750000
vt 0.500000 0.750000
vt 0.625000 0.875000
vt 0.375000 0.875000
vt 0.375000 0.750000
vt 0.875000 0.750000
vt 0.875000 1.000000
vt 0.750000 1.000000
vt 0.750000 0.750000
vt 1.000000 0.750000
vt 1.000000 1.000000
s 0
g Cube_Wood
usemtl Wood
f 1/1/1 5/2/1 7/3/1 3/4/1
f 4/5/2 3/6/2 7/7/2 8/8/2
f 6/9/3 2/10/3 4/11/3 8/12/3
f 2/13/4 1/14/4 3/15/4 4/16/4
f 6/8/5 5/7/5 1/14/5 2/13/5
f 11/17/5 12/18/5 16/19/5 15/20/5
f 15/21/6 16/18/6 14/22/6 13/23/6
f 13/22/2 14/24/2 10/25/2 9/26/2
f 11/27/7 15/28/7 13/29/7 9/30/7
f 16/31/8 12/32/8 10/28/8 14/27/8
o Cube.002
v -0.062500 0.089959 -0.165403
v -0.187500 0.178347 -0.253791
v 0.062500 0.089959 -0.165403
v 0.187500 0.178347 -0.253791
v -0.062500 0.134153 -0.121209
v -0.187500 0.222541 -0.209597
v 0.062500 0.134153 -0.121209
v 0.187500 0.222541 -0.209597
v -0.187500 -0.086818 0.011374
v -0.062500 0.001570 -0.077015
v 0.187500 -0.086818 0.011374
v 0.062500 0.001570 -0.077015
v -0.187500 -0.042624 0.055568
v -0.062500 0.045765 -0.032820
v 0.187500 -0.042624 0.055568
v 0.062500 0.045765 -0.032820
v -0.187500 0.178347 -0.253791
v -0.062500 0.089959 -0.165403
v -0.187500 -0.086818 0.011374
v -0.062500 0.001570 -0.077015
v -0.187500 0.222541 -0.209597
v -0.062500 0.134153 -0.121209
v -0.187500 -0.042624 0.055568
v -0.062500 0.045765 -0.032820
v 0.062500 0.089959 -0.165403
v 0.187500 0.178347 -0.253791
v 0.062500 0.001570 -0.077015
v 0.187500 -0.086818 0.011374
v 0.062500 0.134153 -0.121209
v 0.187500 0.222541 -0.209597
v 0.062500 0.045765 -0.032820
v 0.187500 -0.042624 0.055568
vn -0.0000 -0.7071 -0.7071
vn -0.0000 0.7071 0.7071
vn -0.0000 -0.7071 0.7071
vn -0.0000 0.7071 -0.7071
vn -1.0000 -0.0000 -0.0000
vn 1.0000 -0.0000 -0.0000
vt 0.875000 0.250000
vt 1.000000 0.375000
vt 0.625000 0.375000
vt 0.750000 0.250000
vt 0.250000 0.875000
vt 0.375000 1.000000
vt 0.000000 1.000000
vt 0.125000 0.875000
vt 0.125000 0.000000
vt 0.125000 0.062500
vt 0.000000 0.062500
vt 0.000000 0.000000
vt 1.000000 0.437500
vt 0.625000 0.437500
vt 1.000000 0.000000
vt 0.875000 0.125000
vt 0.750000 0.125000
vt 0.625000 0.000000
vt 0.375000 0.625000
vt 0.250000 0.750000
vt 0.125000 0.750000
vt 0.000000 0.625000
vt 0.375000 0.562500
vt 0.000000 0.562500
vt 0.125000 0.125000
vt 0.000000 0.125000
vt 1.000000 0.000000
vt 0.375000 0.500000
vt 0.000000 0.500000
vt 1.000000 0.937500
vt 1.000000 1.000000
vt 0.875000 1.000000
vt 0.875000 0.937500
vt 1.000000 0.875000
vt 0.875000 0.875000
vt 1.000000 0.500000
vt 0.625000 0.500000
s 0
g Cube.002_Stone
usemtl Stone
f 17/33/9 18/34/9 20/35/9 19/36/9
f 23/37/10 24/38/10 22/39/10 21/40/10
f 19/41/11 23/42/11 21/43/11 17/44/11
f 24/34/12 20/45/12 18/46/12 22/35/12
f 25/47/9 26/48/9 28/49/9 27/50/9
f 31/51/10 32/52/10 30/53/10 29/54/10
f 27/55/11 31/51/11 29/54/11 25/56/11
f 32/42/12 28/57/12 26/58/12 30/43/12
f 33/34/9 34/33/9 36/48/9 35/59/9
f 39/54/10 40/53/10 38/40/10 37/39/10
f 35/60/13 39/55/13 37/56/13 33/61/13
f 40/62/14 36/63/14 34/64/14 38/65/14
f 41/36/9 42/35/9 44/50/9 43/49/9
f 47/52/10 48/51/10 46/38/10 45/37/10
f 43/66/13 47/62/13 45/65/13 41/67/13
f 48/45/14 44/68/14 42/69/14 46/46/14
